# xmcd
#
# Track frame offsets:
#	150
#	11812
#	21950
#	32305
#	43047
#	53627
#	64730
#	75772
#	88492
#	101470
#	113690
#	124610
#	135920
#	148265
#
# Disc length: 2139 seconds
#
# Revision: 1
# Processed by: cddbd v1.5.2PL0 Copyright (c) Steve Scherf et al.
# Submitted via: audiograbber 1.83.01
#
DISCID=ac08590e
DTITLE=Patsy Cline and Kitty Wells - Patsy and Kitty
DYEAR=1900
DGENRE=Country
TTITLE0=Walking After Midnight
TTITLE1=Release Me
TTITLE2=Three Cigarettes In The Ashtray
TTITLE3=Making Believe
TTITLE4=Too Many Secrets
TTITLE5=Lonely Side Of Town
TTITLE6=Honky Tonk Merry Go Round
TTITLE7=Searching
TTITLE8=Got A Lot Of Rhythm
TTITLE9=Mommy For A Day
TTITLE10=Don't Ever Leave Me Again
TTITLE11=Left To Right
TTITLE12=Stop The World
TTITLE13=Password
EXTD=
EXTT0=
EXTT1=
EXTT2=
EXTT3=
EXTT4=
EXTT5=
EXTT6=
EXTT7=
EXTT8=
EXTT9=
EXTT10=
EXTT11=
EXTT12=
EXTT13=
PLAYORDER=
